<svg width="189" height="182" viewBox="0 0 189 182" fill="none" xmlns="http://www.w3.org/2000/svg">
<rect x="46.6754" width="6.80634" height="98.9396" rx="3.40317" fill="black"/>
<rect width="6.81311" height="19.9382" rx="3.40655" transform="matrix(0.776374 0.630273 -0.628367 0.777917 59.2041 3.75858)" fill="black"/>
<rect width="6.81311" height="20.5749" rx="3.40655" transform="matrix(0.776374 -0.630273 0.628367 0.777917 35.4761 7.88379)" fill="black"/>
<rect width="6.81311" height="19.9382" rx="3.40655" transform="matrix(-0.776374 -0.630273 0.628367 -0.777917 40.7831 93.7262)" fill="black"/>
<rect width="6.81311" height="20.5749" rx="3.40655" transform="matrix(-0.776374 0.630273 -0.628367 -0.777917 64.5109 89.601)" fill="black"/>
<rect width="6.81915" height="98.7539" rx="3.40958" transform="matrix(0.49906 0.866567 -0.865482 0.50094 91.0693 21.8541)" fill="black"/>
<rect width="6.81577" height="19.9304" rx="3.40789" transform="matrix(-0.156218 0.988797 -0.986578 -0.156651 94.0868 34.6107)" fill="black"/>
<rect width="6.81577" height="20.5668" rx="3.40789" transform="matrix(0.932288 0.35877 -0.357965 0.934872 78.6593 16.0728)" fill="black"/>
<rect width="6.81577" height="19.9304" rx="3.40789" transform="matrix(0.156218 -0.988797 0.986578 0.156651 7.1571 63.6015)" fill="black"/>
<rect width="6.81577" height="20.5668" rx="3.40789" transform="matrix(-0.932288 -0.35877 0.357965 -0.934872 22.5847 82.1394)" fill="black"/>
<rect width="6.81915" height="98.7539" rx="3.40958" transform="matrix(0.49906 -0.866567 0.865482 0.50094 5.59961 27.6157)" fill="black"/>
<rect width="6.81577" height="19.9304" rx="3.40789" transform="matrix(0.932288 -0.35877 0.357965 0.934872 15.1108 18.6177)" fill="black"/>
<rect width="6.81577" height="20.5668" rx="3.40789" transform="matrix(-0.156218 -0.988797 0.986578 -0.156651 6.81055 41.2808)" fill="black"/>
<rect width="6.81577" height="19.9304" rx="3.40789" transform="matrix(-0.932288 0.35877 -0.357965 -0.934872 83.6196 79.5945)" fill="black"/>
<rect width="6.81577" height="20.5668" rx="3.40789" transform="matrix(0.156218 0.988797 -0.986578 0.156651 91.9199 56.9314)" fill="black"/>
<rect x="147.391" y="32.9799" width="5.31226" height="76.953" rx="2.65613" fill="black"/>
<rect width="5.31022" height="15.5289" rx="2.65511" transform="matrix(0.777445 0.628951 -0.62969 0.776847 157.169 35.9032)" fill="black"/>
<rect width="5.31022" height="16.0247" rx="2.65511" transform="matrix(0.777445 -0.628951 0.62969 0.776847 138.65 39.1117)" fill="black"/>
<rect width="5.31022" height="15.5289" rx="2.65511" transform="matrix(-0.777445 -0.628951 0.62969 -0.776847 142.792 105.878)" fill="black"/>
<rect width="5.31022" height="16.0247" rx="2.65511" transform="matrix(-0.777445 0.628951 -0.62969 -0.776847 161.311 102.67)" fill="black"/>
<rect width="5.30839" height="77.0091" rx="2.6542" transform="matrix(0.500364 0.865815 -0.866236 0.499636 182.04 49.9775)" fill="black"/>
<rect width="5.30942" height="15.5312" rx="2.65471" transform="matrix(-0.156518 0.987258 -0.988118 -0.156351 184.395 59.8993)" fill="black"/>
<rect width="5.30942" height="16.0271" rx="2.65471" transform="matrix(0.934081 0.358212 -0.358524 0.93308 172.354 45.4809)" fill="black"/>
<rect width="5.30942" height="15.5312" rx="2.65471" transform="matrix(0.156518 -0.987258 0.988118 0.156351 116.547 82.4477)" fill="black"/>
<rect width="5.30942" height="16.0271" rx="2.65471" transform="matrix(-0.934081 -0.358212 0.358524 -0.93308 128.588 96.8661)" fill="black"/>
<rect width="5.30839" height="77.0091" rx="2.6542" transform="matrix(0.500364 -0.865815 0.866236 0.499636 115.332 54.4587)" fill="black"/>
<rect width="5.30942" height="15.5312" rx="2.65471" transform="matrix(0.934081 -0.358212 0.358524 0.93308 122.755 47.4603)" fill="black"/>
<rect width="5.30942" height="16.0271" rx="2.65471" transform="matrix(-0.156518 -0.987258 0.988118 -0.156351 116.277 65.0871)" fill="black"/>
<rect width="5.30942" height="15.5312" rx="2.65471" transform="matrix(-0.934081 0.358212 -0.358524 -0.93308 176.225 94.8867)" fill="black"/>
<rect width="5.30942" height="16.0271" rx="2.65471" transform="matrix(0.156518 0.987258 -0.988118 0.156351 182.704 77.2599)" fill="black"/>
<rect x="75.9344" y="118.483" width="4.31621" height="63.5168" rx="2.15811" fill="black"/>
<rect width="4.34177" height="12.7384" rx="2.17089" transform="matrix(0.772571 0.634929 -0.623696 0.781667 83.8795 120.896)" fill="black"/>
<rect width="4.34177" height="13.1452" rx="2.17089" transform="matrix(0.772571 -0.634929 0.623696 0.781667 68.8325 123.544)" fill="black"/>
<rect width="4.34177" height="12.7384" rx="2.17089" transform="matrix(-0.772571 -0.634929 0.623696 -0.781667 72.198 178.653)" fill="black"/>
<rect width="4.34177" height="13.1452" rx="2.17089" transform="matrix(-0.772571 0.634929 -0.623696 -0.781667 87.2449 176.005)" fill="black"/>
<rect width="4.36449" height="62.8193" rx="2.18225" transform="matrix(0.494469 0.869195 -0.862797 0.505551 104.087 132.513)" fill="black"/>
<rect width="4.3518" height="12.7091" rx="2.1759" transform="matrix(-0.155155 0.994195 -0.981118 -0.157707 106 140.702)" fill="black"/>
<rect width="4.3518" height="13.115" rx="2.1759" transform="matrix(0.925947 0.360729 -0.355984 0.941175 96.2169 128.802)" fill="black"/>
<rect width="4.3518" height="12.7091" rx="2.1759" transform="matrix(0.155155 -0.994195 0.981118 0.157707 50.8741 159.314)" fill="black"/>
<rect width="4.3518" height="13.115" rx="2.1759" transform="matrix(-0.925947 -0.360729 0.355984 -0.941175 60.6573 171.215)" fill="black"/>
<rect width="4.36449" height="62.8193" rx="2.18225" transform="matrix(0.494469 -0.869195 0.862797 0.505551 49.8865 136.212)" fill="black"/>
<rect width="4.3518" height="12.7091" rx="2.1759" transform="matrix(0.925947 -0.360729 0.355984 0.941175 55.918 130.435)" fill="black"/>
<rect width="4.3518" height="13.115" rx="2.1759" transform="matrix(-0.155155 -0.994195 0.981118 -0.157707 50.6543 144.984)" fill="black"/>
<rect width="4.3518" height="12.7091" rx="2.1759" transform="matrix(-0.925947 0.360729 -0.355984 -0.941175 99.3625 169.581)" fill="black"/>
<rect width="4.3518" height="13.115" rx="2.1759" transform="matrix(0.155155 0.994195 -0.981118 0.157707 104.626 155.032)" fill="black"/>
</svg>
