<svg width="225" height="209" viewBox="0 0 225 209" fill="none" xmlns="http://www.w3.org/2000/svg">
<rect width="42.4072" height="11.8408" rx="5.9204" transform="matrix(0.717757 -0.696294 0.717757 0.696294 44 170.528)" fill="black"/>
<rect width="42.4072" height="11.8408" rx="5.9204" transform="matrix(0.717757 -0.696294 0.717757 0.696294 91 170.528)" fill="black"/>
<rect width="42.4072" height="11.8408" rx="5.9204" transform="matrix(0.717757 -0.696294 0.717757 0.696294 88 200.528)" fill="black"/>
<rect width="42.4072" height="11.8408" rx="5.9204" transform="matrix(0.717757 -0.696294 0.717757 0.696294 49 200.528)" fill="black"/>
<rect width="42.4072" height="11.8408" rx="5.9204" transform="matrix(0.717757 -0.696294 0.717757 0.696294 133 200.528)" fill="black"/>
<rect width="42.4072" height="11.8408" rx="5.9204" transform="matrix(0.717757 -0.696294 0.717757 0.696294 133 170.528)" fill="black"/>
<rect y="62.3984" width="225" height="76" rx="38" fill="black"/>
<rect x="26.8613" y="24.7446" width="110" height="76" rx="38" transform="rotate(-13 26.8613 24.7446)" fill="black"/>
<rect x="98" y="41.3984" width="84" height="76" rx="38" fill="black"/>
<rect x="109.988" y="49" width="5.15247" height="76" rx="2.57623" fill="white"/>
<rect width="5.18786" height="15.2282" rx="2.59393" transform="matrix(0.771844 0.635812 -0.622808 0.782375 119.472 51.8872)" fill="white"/>
<rect width="5.18786" height="15.7144" rx="2.59393" transform="matrix(0.771844 -0.635812 0.622808 0.782375 101.51 55.0559)" fill="white"/>
<rect width="5.18786" height="15.2282" rx="2.59393" transform="matrix(-0.771844 -0.635812 0.622808 -0.782375 105.527 120.995)" fill="white"/>
<rect width="5.18786" height="15.7144" rx="2.59393" transform="matrix(-0.771844 0.635812 -0.622808 -0.782375 123.49 117.827)" fill="white"/>
<rect width="5.22561" height="74.9427" rx="2.61281" transform="matrix(0.416703 0.909043 -0.903504 0.428581 145.294 68.6247)" fill="white"/>
<rect width="5.20305" height="15.1838" rx="2.60153" transform="matrix(-0.23957 0.977443 -0.963062 -0.244262 146.73 78.5889)" fill="white"/>
<rect width="5.20305" height="15.6686" rx="2.60153" transform="matrix(0.890056 0.4416 -0.435103 0.907487 136.316 63.3678)" fill="white"/>
<rect width="5.20305" height="15.1838" rx="2.60153" transform="matrix(0.23957 -0.977443 0.963062 0.244262 79.2657 94.9389)" fill="white"/>
<rect width="5.20305" height="15.6686" rx="2.60153" transform="matrix(-0.890056 -0.4416 0.435103 -0.907487 89.6799 110.16)" fill="white"/>
<rect width="5.22561" height="74.9427" rx="2.61281" transform="matrix(0.416703 -0.909043 0.903504 0.428581 77.5829 73.2563)" fill="white"/>
<rect width="5.20305" height="15.1838" rx="2.60153" transform="matrix(0.890056 -0.4416 0.435103 0.907487 84.1635 65.7325)" fill="white"/>
<rect width="5.20305" height="15.6686" rx="2.60153" transform="matrix(-0.23957 -0.977443 0.963062 -0.244262 79.3955 83.6319)" fill="white"/>
<rect width="5.20305" height="15.1838" rx="2.60153" transform="matrix(-0.890056 0.4416 -0.435103 -0.907487 139.841 107.795)" fill="white"/>
<rect width="5.20305" height="15.6686" rx="2.60153" transform="matrix(0.23957 0.977443 -0.963062 0.244262 144.609 89.8958)" fill="white"/>
</svg>
