<svg width="150" height="178" viewBox="0 0 150 178" fill="none" xmlns="http://www.w3.org/2000/svg">
<path fill-rule="evenodd" clip-rule="evenodd" d="M140.139 140.2C136.504 140.727 132.785 141 129 141C87.5786 141 54 108.317 54 68C54 53.4663 58.3636 39.9245 65.8852 28.5483C28.7626 33.0458 0 64.664 0 103C0 144.421 33.5786 178 75 178C102.884 178 127.214 162.783 140.139 140.2Z" fill="black"/>
<path d="M96 0L99.1432 9.67376H109.315L101.086 15.6525L104.229 25.3262L96 19.3475L87.771 25.3262L90.9142 15.6525L82.6852 9.67376H92.8568L96 0Z" fill="black"/>
<path d="M143.5 23L144.959 27.4914H149.682L145.861 30.2672L147.321 34.7586L143.5 31.9828L139.679 34.7586L141.139 30.2672L137.318 27.4914H142.041L143.5 23Z" fill="black"/>
<path d="M135.5 64L137.857 71.2553H145.486L139.314 75.7394L141.672 82.9947L135.5 78.5106L129.328 82.9947L131.686 75.7394L125.514 71.2553H133.143L135.5 64Z" fill="black"/>
</svg>
