<svg width="225" height="210" viewBox="0 0 225 210" fill="none" xmlns="http://www.w3.org/2000/svg">
<rect width="42.4072" height="11.8408" rx="5.9204" transform="matrix(0.717757 -0.696294 0.717757 0.696294 46 171.528)" fill="black"/>
<rect width="42.4072" height="11.8408" rx="5.9204" transform="matrix(0.717757 -0.696294 0.717757 0.696294 90 171.528)" fill="black"/>
<rect width="42.4072" height="11.8408" rx="5.9204" transform="matrix(0.717757 -0.696294 0.717757 0.696294 87 201.528)" fill="black"/>
<rect width="42.4072" height="11.8408" rx="5.9204" transform="matrix(0.717757 -0.696294 0.717757 0.696294 46 201.528)" fill="black"/>
<rect width="42.4072" height="11.8408" rx="5.9204" transform="matrix(0.717757 -0.696294 0.717757 0.696294 132 201.528)" fill="black"/>
<rect width="42.4072" height="11.8408" rx="5.9204" transform="matrix(0.717757 -0.696294 0.717757 0.696294 132 171.528)" fill="black"/>
<rect y="62.3984" width="225" height="76" rx="38" fill="black"/>
<rect x="26.8613" y="24.7446" width="110" height="76" rx="38" transform="rotate(-13 26.8613 24.7446)" fill="black"/>
<rect x="98" y="41.3984" width="84" height="76" rx="38" fill="black"/>
</svg>
