<svg width="206" height="203" viewBox="0 0 206 203" fill="none" xmlns="http://www.w3.org/2000/svg">
<rect x="96.007" width="14" height="203" rx="7" fill="black"/>
<rect x="121.777" y="7.71167" width="14" height="40.9489" rx="7" transform="rotate(39 121.777 7.71167)" fill="black"/>
<rect x="72.9711" y="16.1756" width="14" height="42.2565" rx="7" transform="rotate(-39 72.9711 16.1756)" fill="black"/>
<rect x="83.887" y="192.303" width="14" height="40.9489" rx="7" transform="rotate(-141 83.887 192.303)" fill="black"/>
<rect x="132.693" y="183.839" width="14" height="42.2565" rx="7" transform="rotate(141 132.693 183.839)" fill="black"/>
<rect x="187.321" y="44.8393" width="14" height="203" rx="7" transform="rotate(60 187.321 44.8393)" fill="black"/>
<rect x="193.528" y="71.0127" width="14" height="40.9489" rx="7" transform="rotate(99 193.528 71.0127)" fill="black"/>
<rect x="161.795" y="32.9774" width="14" height="42.2565" rx="7" transform="rotate(21 161.795 32.9774)" fill="black"/>
<rect x="14.7215" y="130.495" width="14" height="40.9489" rx="7" transform="rotate(-81 14.7215 130.495)" fill="black"/>
<rect x="46.4545" y="168.53" width="14" height="42.2565" rx="7" transform="rotate(-159 46.4545 168.53)" fill="black"/>
<rect x="11.5179" y="56.6607" width="14" height="203" rx="7" transform="rotate(-60 11.5179 56.6607)" fill="black"/>
<rect x="31.0815" y="38.199" width="14" height="40.9489" rx="7" transform="rotate(-21 31.0815 38.199)" fill="black"/>
<rect x="14.0085" y="84.6982" width="14" height="42.2565" rx="7" transform="rotate(-99 14.0085 84.6982)" fill="black"/>
<rect x="171.998" y="163.309" width="14" height="40.9489" rx="7" transform="rotate(159 171.998 163.309)" fill="black"/>
<rect x="189.071" y="116.809" width="14" height="42.2565" rx="7" transform="rotate(81 189.071 116.809)" fill="black"/>
</svg>
