<svg width="285" height="277" viewBox="0 0 285 277" fill="none" xmlns="http://www.w3.org/2000/svg">
<ellipse cx="142.5" cy="138.475" rx="61.0637" ry="59.2378" fill="black"/>
<rect x="213.334" y="134.526" width="71.6481" height="7.89837" rx="3.94919" fill="black"/>
<rect x="0.0179443" y="134.526" width="71.6481" height="7.89837" rx="3.94919" fill="black"/>
<rect x="138.429" y="69.759" width="69.5057" height="8.14183" rx="4.07091" transform="rotate(-90 138.429 69.759)" fill="black"/>
<rect x="138.429" y="276.696" width="69.5057" height="8.14183" rx="4.07091" transform="rotate(-90 138.429 276.696)" fill="black"/>
<rect width="60" height="8.02102" rx="4.01051" transform="matrix(0.717757 -0.696294 0.717757 0.696294 46.0001 225.778)" fill="black"/>
<rect width="60" height="8.02102" rx="4.01051" transform="matrix(0.717757 -0.696294 0.717757 0.696294 191 87.7776)" fill="black"/>
<rect width="60" height="8.02102" rx="4.01051" transform="matrix(-0.702532 -0.711653 0.690004 -0.723805 230.85 234.829)" fill="black"/>
<rect width="60" height="8.02102" rx="4.01051" transform="matrix(-0.702532 -0.711653 0.690004 -0.723805 91.5897 91.0386)" fill="black"/>
</svg>
